<svg width="86" height="47" viewBox="0 0 86 47" fill="none" xmlns="http://www.w3.org/2000/svg">
<path d="M8.04263 15.6664V10.8363H9.38491V15.6664H8.04263ZM8.71691 10.2137C8.5174 10.2137 8.34615 10.1477 8.2033 10.0156C8.06256 9.88143 7.99219 9.72109 7.99219 9.53452C7.99219 9.34999 8.06256 9.19176 8.2033 9.05968C8.34615 8.92549 8.5174 8.8584 8.71691 8.8584C8.91648 8.8584 9.08664 8.92549 9.22738 9.05968C9.37024 9.19176 9.44163 9.34999 9.44163 9.53452C9.44163 9.72109 9.37024 9.88143 9.22738 10.0156C9.08664 10.1477 8.91648 10.2137 8.71691 10.2137ZM15.883 9.22636V15.6664H14.7045L11.897 11.6131H11.8498V15.6664H10.4854V9.22636H11.6827L14.4682 13.2765H14.5248V9.22636H15.883ZM16.7644 10.3489V9.22636H22.0642V10.3489H20.0886V15.6664H18.74V10.3489H16.7644ZM22.9371 15.6664V9.22636H27.2853V10.3489H24.3014V11.8835H27.0617V13.0061H24.3014V14.5438H27.298V15.6664H22.9371ZM28.3701 15.6664V9.22636H30.916C31.4034 9.22636 31.8193 9.31335 32.1638 9.48731C32.5104 9.65924 32.774 9.90343 32.9546 10.22C33.1374 10.5345 33.2288 10.9045 33.2288 11.3301C33.2288 11.7577 33.1363 12.1256 32.9515 12.4338C32.7667 12.7398 32.4988 12.9746 32.148 13.1382C31.7993 13.3017 31.3771 13.3834 30.8814 13.3834H29.1767V12.2891H30.6608C30.9213 12.2891 31.1377 12.2535 31.3099 12.1822C31.4821 12.1109 31.6102 12.004 31.6943 11.8615C31.7804 11.7189 31.8235 11.5418 31.8235 11.3301C31.8235 11.1162 31.7804 10.9359 31.6943 10.7891C31.6102 10.6424 31.4811 10.5313 31.3067 10.4559C31.1344 10.3783 30.9171 10.3395 30.6545 10.3395H29.7344V15.6664H28.3701ZM31.855 12.7356L33.4588 15.6664H31.9527L30.3835 12.7356H31.855ZM34.193 15.6664V9.22636H36.7389C37.2284 9.22636 37.6453 9.31961 37.9899 9.50618C38.3344 9.69071 38.5969 9.9475 38.7776 10.2766C38.9603 10.6037 39.0517 10.981 39.0517 11.4087C39.0517 11.8363 38.9593 12.2137 38.7745 12.5407C38.5896 12.8677 38.3217 13.1225 37.971 13.3048C37.6223 13.4872 37.2 13.5784 36.7042 13.5784H35.0815V12.4872H36.4837C36.7463 12.4872 36.9627 12.4422 37.1328 12.352C37.305 12.2598 37.4332 12.1329 37.5172 11.9715C37.6034 11.808 37.6464 11.6204 37.6464 11.4087C37.6464 11.1948 37.6034 11.0083 37.5172 10.849C37.4332 10.6875 37.305 10.5628 37.1328 10.4747C36.9605 10.3846 36.7421 10.3395 36.4774 10.3395H35.5573V15.6664H34.193ZM39.9379 15.6664V9.22636H42.4839C42.9712 9.22636 43.3871 9.31335 43.7316 9.48731C44.0782 9.65924 44.3419 9.90343 44.5225 10.22C44.7053 10.5345 44.7966 10.9045 44.7966 11.3301C44.7966 11.7577 44.7042 12.1256 44.5194 12.4338C44.3345 12.7398 44.0667 12.9746 43.7158 13.1382C43.3672 13.3017 42.945 13.3834 42.4492 13.3834H40.7445V12.2891H42.2287C42.4891 12.2891 42.7055 12.2535 42.8778 12.1822C43.05 12.1109 43.1781 12.004 43.2622 11.8615C43.3483 11.7189 43.3914 11.5418 43.3914 11.3301C43.3914 11.1162 43.3483 10.9359 43.2622 10.7891C43.1781 10.6424 43.0489 10.5313 42.8745 10.4559C42.7023 10.3783 42.4849 10.3395 42.2223 10.3395H41.3022V15.6664H39.9379ZM43.4228 12.7356L45.0267 15.6664H43.5205L41.9513 12.7356H43.4228ZM45.7608 15.6664V9.22636H50.1091V10.3489H47.1252V11.8835H49.8854V13.0061H47.1252V14.5438H50.1217V15.6664H45.7608ZM50.948 10.3489V9.22636H56.2479V10.3489H54.2723V15.6664H52.9236V10.3489H50.948ZM57.1207 15.6664V9.22636H61.469V10.3489H58.485V11.8835H61.2453V13.0061H58.485V14.5438H61.4816V15.6664H57.1207ZM62.5537 15.6664V9.22636H65.0997C65.587 9.22636 66.0029 9.31335 66.3474 9.48731C66.694 9.65924 66.9577 9.90343 67.1383 10.22C67.3211 10.5345 67.4125 10.9045 67.4125 11.3301C67.4125 11.7577 67.32 12.1256 67.1351 12.4338C66.9503 12.7398 66.6825 12.9746 66.3317 13.1382C65.9829 13.3017 65.5607 13.3834 65.065 13.3834H63.3604V12.2891H64.8444C65.1049 12.2891 65.3213 12.2535 65.4935 12.1822C65.6658 12.1109 65.7939 12.004 65.8779 11.8615C65.964 11.7189 66.0071 11.5418 66.0071 11.3301C66.0071 11.1162 65.964 10.9359 65.8779 10.7891C65.7939 10.6424 65.6647 10.5313 65.4904 10.4559C65.3181 10.3783 65.1007 10.3395 64.8381 10.3395H63.9181V15.6664H62.5537ZM66.0386 12.7356L67.6425 15.6664H66.1363L64.5672 12.7356H66.0386Z" fill="white"/>
<path d="M17.4011 32.6957C16.411 32.6957 15.7339 32.5068 15.3699 32.129C15.035 31.8093 14.8675 31.5332 14.8675 31.3007V30.8429C14.1541 32.1363 13.011 32.7829 11.4385 32.7829C9.6038 32.7829 8.56272 31.9546 8.31517 30.298C8.28602 30.1236 8.27148 29.9493 8.27148 29.7749C8.27148 29.586 8.30063 29.3825 8.35885 29.1646C8.41707 28.9466 8.58457 28.7068 8.8612 28.4453C9.41453 27.9221 10.6303 27.6025 12.5087 27.4862C12.9747 27.4426 13.4042 27.4208 13.7973 27.4208C14.1905 27.4208 14.5472 27.4353 14.8675 27.4644V23.8461C14.8384 23.8316 14.8384 23.7662 14.8675 23.6499C14.8967 23.5191 14.8675 23.3593 14.7802 23.1704C14.7074 22.9669 14.6055 22.7707 14.4744 22.5818C14.3434 22.393 14.1104 22.2331 13.7755 22.1023C13.4406 21.957 13.0037 21.8843 12.465 21.8843C11.9263 21.8843 11.2929 21.986 10.5648 22.1895C9.85136 22.3784 9.32717 22.5673 8.99225 22.7562L8.90488 22.6036C10.2008 22.0078 11.5185 21.71 12.8582 21.71C14.3579 21.71 15.3481 21.9788 15.8286 22.5165C16.2072 22.9379 16.3964 23.381 16.3964 23.8461V31.1481C16.3964 31.5695 16.4765 31.8965 16.6367 32.129C16.8114 32.3469 16.9861 32.4632 17.1609 32.4777L17.4011 32.5213H18.0782V32.6957H17.4011ZM11.7879 32.6085C12.5597 32.6085 13.2513 32.3469 13.8628 31.8238C14.4889 31.2862 14.8239 30.7703 14.8675 30.2762V27.6388C14.4744 27.6097 14.074 27.5952 13.6663 27.5952C13.2731 27.5952 12.88 27.617 12.4868 27.6606C11.3802 27.7914 10.6595 28.0384 10.3246 28.4017C9.98964 28.7649 9.82221 29.2663 9.82221 29.9057C9.82221 30.0219 9.82952 30.1527 9.84406 30.298C9.9751 31.8383 10.623 32.6085 11.7879 32.6085ZM28.3442 32.6957C27.7471 32.6957 27.2885 32.5649 26.9682 32.3034C26.6624 32.0418 26.5022 31.7802 26.4876 31.5187L26.4658 31.1481V24.3038C26.4658 23.1559 26.1673 22.422 25.5703 22.1023C25.2645 21.957 24.8859 21.8843 24.4346 21.8843C23.5026 21.8843 22.6654 22.2549 21.9228 22.996C21.1802 23.7226 20.8089 24.3765 20.8089 24.9577V32.6957H19.28V21.7971H20.8089V24.282C21.0564 23.6572 21.5151 23.0759 22.1849 22.5383C22.8547 21.986 23.59 21.71 24.3909 21.71C25.1917 21.71 25.8396 21.7899 26.3348 21.9497C26.8443 22.095 27.2156 22.3058 27.4487 22.5818C27.8127 23.0323 27.9947 23.6136 27.9947 24.3256V31.1481C27.9947 31.5695 28.0748 31.8965 28.235 32.129C28.4097 32.3469 28.5844 32.4632 28.7591 32.4777L28.9994 32.5213H29.6765V32.6957H28.3442ZM30.454 27.6388C30.454 25.7497 30.9127 24.2893 31.83 23.2576C32.7474 22.2258 34.1234 21.71 35.958 21.71C37.3122 21.71 38.6882 21.9497 40.086 22.4293V32.9573C40.0715 36.4157 38.5571 38.145 35.543 38.145C33.8831 38.145 32.4634 37.6073 31.284 36.532L31.4369 36.4012C32.6891 37.4475 34.0578 37.9706 35.543 37.9706C37.5524 37.9706 38.5571 36.2995 38.5571 32.9573V30.7994C38.2805 31.308 37.8218 31.7584 37.1811 32.1508C36.5404 32.5431 35.7833 32.7393 34.9096 32.7393C31.9392 32.6666 30.454 30.9664 30.454 27.6388ZM34.9315 32.5649C35.907 32.5649 36.7443 32.3034 37.4432 31.7802C38.1422 31.2571 38.5135 30.7412 38.5571 30.2326V22.5383C37.5088 22.1023 36.6206 21.8843 35.8925 21.8843C34.5966 21.8843 33.621 22.393 32.9658 23.4101C32.3105 24.4128 31.9829 25.8223 31.9829 27.6388C31.9829 30.9228 32.9658 32.5649 34.9315 32.5649ZM43.674 30.189C43.674 31.337 43.9798 32.0709 44.5913 32.3905C44.8825 32.5358 45.2538 32.6085 45.7052 32.6085C46.6226 32.6085 47.4379 32.2598 48.1515 31.5623C48.8795 30.8647 49.2726 30.2181 49.3309 29.6223V21.7971H50.8598V31.1481C50.8598 31.5695 50.9398 31.8965 51.1 32.129C51.2748 32.3469 51.4495 32.4632 51.6242 32.4777L51.8645 32.5213H52.5415V32.6957H51.2092C50.6122 32.6957 50.1536 32.5649 49.8332 32.3034C49.5275 32.0418 49.3673 31.7802 49.3527 31.5187L49.3309 31.1481V30.2108C49.0688 30.8357 48.6028 31.4242 47.933 31.9764C47.2632 32.514 46.5279 32.7829 45.7271 32.7829C44.9408 32.7829 44.2928 32.7102 43.7832 32.5649C43.2881 32.405 42.9314 32.1871 42.7129 31.911C42.3344 31.4606 42.1451 30.8793 42.1451 30.1672V21.7971H43.674V30.189ZM62.662 32.6957C61.6719 32.6957 60.9948 32.5068 60.6308 32.129C60.2959 31.8093 60.1285 31.5332 60.1285 31.3007V30.8429C59.415 32.1363 58.2719 32.7829 56.6994 32.7829C54.8647 32.7829 53.8236 31.9546 53.5761 30.298C53.5469 30.1236 53.5324 29.9493 53.5324 29.7749C53.5324 29.586 53.5615 29.3825 53.6198 29.1646C53.678 28.9466 53.8455 28.7068 54.1221 28.4453C54.6754 27.9221 55.8913 27.6025 57.7696 27.4862C58.2356 27.4426 58.6651 27.4208 59.0582 27.4208C59.4514 27.4208 59.8081 27.4353 60.1285 27.4644V23.8461C60.0993 23.8316 60.0993 23.7662 60.1285 23.6499C60.1576 23.5191 60.1285 23.3593 60.0411 23.1704C59.9683 22.9669 59.8664 22.7707 59.7353 22.5818C59.6043 22.393 59.3713 22.2331 59.0364 22.1023C58.7015 21.957 58.2646 21.8843 57.7259 21.8843C57.1872 21.8843 56.5538 21.986 55.8257 22.1895C55.1123 22.3784 54.5881 22.5673 54.2532 22.7562L54.1658 22.6036C55.4617 22.0078 56.7794 21.71 58.1191 21.71C59.6188 21.71 60.609 21.9788 61.0895 22.5165C61.4681 22.9379 61.6573 23.381 61.6573 23.8461V31.1481C61.6573 31.5695 61.7374 31.8965 61.8976 32.129C62.0723 32.3469 62.2471 32.4632 62.4218 32.4777L62.662 32.5213H63.3391V32.6957H62.662ZM57.0488 32.6085C57.8206 32.6085 58.5122 32.3469 59.1238 31.8238C59.7498 31.2862 60.0848 30.7703 60.1285 30.2762V27.6388C59.7353 27.6097 59.3349 27.5952 58.9272 27.5952C58.534 27.5952 58.1409 27.617 57.7478 27.6606C56.6412 27.7914 55.9204 28.0384 55.5855 28.4017C55.2505 28.7649 55.0831 29.2663 55.0831 29.9057C55.0831 30.0219 55.0904 30.1527 55.105 30.298C55.236 31.8383 55.8839 32.6085 57.0488 32.6085ZM64.4317 27.6388C64.4317 25.7497 64.8904 24.2893 65.8077 23.2576C66.7251 22.2258 68.1011 21.71 69.9355 21.71C71.2897 21.71 72.6657 21.9497 74.0635 22.4293V32.9573C74.0492 36.4157 72.5346 38.145 69.5205 38.145C67.8608 38.145 66.4411 37.6073 65.2617 36.532L65.4146 36.4012C66.6668 37.4475 68.0355 37.9706 69.5205 37.9706C71.5299 37.9706 72.5346 36.2995 72.5346 32.9573V30.7994C72.2582 31.308 71.7995 31.7584 71.1586 32.1508C70.5184 32.5431 69.7608 32.7393 68.8871 32.7393C65.9169 32.6666 64.4317 30.9664 64.4317 27.6388ZM68.909 32.5649C69.885 32.5649 70.7218 32.3034 71.4207 31.7802C72.1197 31.2571 72.491 30.7412 72.5346 30.2326V22.5383C71.4863 22.1023 70.5983 21.8843 69.87 21.8843C68.5745 21.8843 67.5987 22.393 66.9435 23.4101C66.2882 24.4128 65.9606 25.8223 65.9606 27.6388C65.9606 30.9228 66.9435 32.5649 68.909 32.5649ZM77.1814 27.3772C77.1814 29.1791 77.4947 30.5015 78.1205 31.3443C78.7614 32.1871 79.5982 32.6085 80.6323 32.6085C82.0881 32.6085 83.3843 32.3905 84.52 31.9546L84.5856 32.1072C83.4205 32.5576 82.1032 32.7829 80.6323 32.7829C79.1764 32.7829 77.9895 32.3469 77.0722 31.4751C76.1548 30.6032 75.6962 29.259 75.6962 27.4426C75.6962 25.6261 76.1767 24.2166 77.1377 23.214C78.0987 22.2113 79.3218 21.71 80.807 21.71C82.0008 21.71 83.0055 22.066 83.8211 22.778C84.6367 23.49 85.0442 24.5436 85.0442 25.9386C85.0442 26.0113 85.0442 26.0839 85.0442 26.1566H77.2469C77.2032 26.5489 77.1814 26.9558 77.1814 27.3772ZM83.559 25.9822C83.5447 24.5872 83.2751 23.5554 82.7509 22.887C82.2267 22.2186 81.5496 21.8843 80.7197 21.8843C79.8897 21.8843 79.1471 22.2476 78.4918 22.9742C77.8509 23.7008 77.4435 24.7035 77.2687 25.9822H83.559Z" fill="white"/>
<path d="M2.99135 32.6956C2.51144 32.6956 2.27148 32.4561 2.27148 31.9772V12.0533C2.27148 11.8404 2.32481 11.6382 2.43146 11.4466L3.55125 9.41911C3.75388 9.04665 3.91918 8.86035 4.04716 8.86035H4.60705C4.92699 8.86035 5.08696 9.04665 5.08696 9.41911V31.9772C5.08696 32.4561 4.84701 32.6956 4.3671 32.6956H2.99135Z" fill="white"/>
</svg>
