<svg width="126" height="69" viewBox="0 0 126 69" fill="none" xmlns="http://www.w3.org/2000/svg">
<path d="M11.7848 23V15.9091H13.7514V23H11.7848ZM12.7727 14.995C12.4804 14.995 12.2295 14.8981 12.0202 14.7042C11.814 14.5072 11.7109 14.2718 11.7109 13.9979C11.7109 13.727 11.814 13.4947 12.0202 13.3008C12.2295 13.1038 12.4804 13.0053 12.7727 13.0053C13.0651 13.0053 13.3144 13.1038 13.5206 13.3008C13.7299 13.4947 13.8345 13.727 13.8345 13.9979C13.8345 14.2718 13.7299 14.5072 13.5206 14.7042C13.3144 14.8981 13.0651 14.995 12.7727 14.995ZM23.2718 13.5455V23H21.5452L17.4319 17.0494H17.3627V23H15.3637V13.5455H17.118L21.199 19.4915H21.282V13.5455H23.2718ZM24.5632 15.1935V13.5455H32.3281V15.1935H29.4336V23H27.4577V15.1935H24.5632ZM33.6069 23V13.5455H39.9776V15.1935H35.6058V17.4464H39.6499V19.0945H35.6058V21.3519H39.9961V23H33.6069ZM41.5669 23V13.5455H45.297C46.011 13.5455 46.6204 13.6732 47.1251 13.9286C47.6329 14.181 48.0191 14.5395 48.2838 15.0043C48.5516 15.4659 48.6855 16.0091 48.6855 16.6339C48.6855 17.2617 48.55 17.8018 48.2792 18.2543C48.0084 18.7036 47.616 19.0483 47.102 19.2884C46.5911 19.5284 45.9725 19.6484 45.2462 19.6484H42.7487V18.0419H44.923C45.3047 18.0419 45.6217 17.9896 45.874 17.8849C46.1264 17.7803 46.3141 17.6233 46.4372 17.4141C46.5634 17.2048 46.6265 16.9447 46.6265 16.6339C46.6265 16.32 46.5634 16.0553 46.4372 15.8398C46.3141 15.6244 46.1249 15.4613 45.8694 15.3505C45.617 15.2366 45.2985 15.1797 44.9138 15.1797H43.5658V23H41.5669ZM46.6727 18.6974L49.0225 23H46.8158L44.5168 18.6974H46.6727ZM50.0981 23V13.5455H53.8282C54.5453 13.5455 55.1562 13.6824 55.661 13.9563C56.1657 14.2272 56.5504 14.6042 56.8151 15.0874C57.0828 15.5675 57.2167 16.1214 57.2167 16.7493C57.2167 17.3771 57.0813 17.9311 56.8105 18.4112C56.5396 18.8913 56.1472 19.2653 55.6333 19.533C55.1224 19.8008 54.5038 19.9347 53.7774 19.9347H51.3999V18.3327H53.4543C53.839 18.3327 54.156 18.2666 54.4053 18.1342C54.6576 17.9988 54.8454 17.8126 54.9685 17.5756C55.0947 17.3356 55.1578 17.0601 55.1578 16.7493C55.1578 16.4354 55.0947 16.1615 54.9685 15.9276C54.8454 15.6906 54.6576 15.5075 54.4053 15.3782C54.1529 15.2459 53.8328 15.1797 53.445 15.1797H52.097V23H50.0981ZM58.5151 23V13.5455H62.2452C62.9592 13.5455 63.5686 13.6732 64.0733 13.9286C64.5811 14.181 64.9674 14.5395 65.2321 15.0043C65.4998 15.4659 65.6337 16.0091 65.6337 16.6339C65.6337 17.2617 65.4983 17.8018 65.2275 18.2543C64.9566 18.7036 64.5642 19.0483 64.0502 19.2884C63.5394 19.5284 62.9208 19.6484 62.1944 19.6484H59.6969V18.0419H61.8713C62.2529 18.0419 62.5699 17.9896 62.8223 17.8849C63.0746 17.7803 63.2624 17.6233 63.3855 17.4141C63.5117 17.2048 63.5748 16.9447 63.5748 16.6339C63.5748 16.32 63.5117 16.0553 63.3855 15.8398C63.2624 15.6244 63.0731 15.4613 62.8176 15.3505C62.5653 15.2366 62.2467 15.1797 61.862 15.1797H60.514V23H58.5151ZM63.6209 18.6974L65.9707 23H63.764L61.465 18.6974H63.6209ZM67.0463 23V13.5455H73.4171V15.1935H69.0453V17.4464H73.0893V19.0945H69.0453V21.3519H73.4355V23H67.0463ZM74.6462 15.1935V13.5455H82.4111V15.1935H79.5166V23H77.5407V15.1935H74.6462ZM83.6899 23V13.5455H90.0606V15.1935H85.6888V17.4464H89.7329V19.0945H85.6888V21.3519H90.0791V23H83.6899ZM91.6499 23V13.5455H95.38C96.094 13.5455 96.7034 13.6732 97.2081 13.9286C97.7159 14.181 98.1022 14.5395 98.3668 15.0043C98.6346 15.4659 98.7685 16.0091 98.7685 16.6339C98.7685 17.2617 98.633 17.8018 98.3622 18.2543C98.0914 18.7036 97.699 19.0483 97.185 19.2884C96.6741 19.5284 96.0555 19.6484 95.3292 19.6484H92.8317V18.0419H95.006C95.3877 18.0419 95.7047 17.9896 95.957 17.8849C96.2094 17.7803 96.3971 17.6233 96.5202 17.4141C96.6464 17.2048 96.7095 16.9447 96.7095 16.6339C96.7095 16.32 96.6464 16.0553 96.5202 15.8398C96.3971 15.6244 96.2079 15.4613 95.9524 15.3505C95.7 15.2366 95.3815 15.1797 94.9968 15.1797H93.6488V23H91.6499ZM96.7557 18.6974L99.1055 23H96.8988L94.5998 18.6974H96.7557Z" fill="white"/>
<path d="M25.496 48C24.0453 48 23.0533 47.7227 22.52 47.168C22.0293 46.6987 21.784 46.2933 21.784 45.952V45.28C20.7387 47.1787 19.064 48.128 16.76 48.128C14.072 48.128 12.5467 46.912 12.184 44.48C12.1413 44.224 12.12 43.968 12.12 43.712C12.12 43.4347 12.1627 43.136 12.248 42.816C12.3333 42.496 12.5787 42.144 12.984 41.76C13.7947 40.992 15.576 40.5227 18.328 40.352C19.0107 40.288 19.64 40.256 20.216 40.256C20.792 40.256 21.3147 40.2773 21.784 40.32V35.008C21.7413 34.9867 21.7413 34.8907 21.784 34.72C21.8267 34.528 21.784 34.2933 21.656 34.016C21.5493 33.7173 21.4 33.4293 21.208 33.152C21.016 32.8747 20.6747 32.64 20.184 32.448C19.6933 32.2347 19.0533 32.128 18.264 32.128C17.4747 32.128 16.5467 32.2773 15.48 32.576C14.4347 32.8533 13.6667 33.1307 13.176 33.408L13.048 33.184C14.9467 32.3093 16.8773 31.872 18.84 31.872C21.0373 31.872 22.488 32.2667 23.192 33.056C23.7467 33.6747 24.024 34.3253 24.024 35.008V45.728C24.024 46.3467 24.1413 46.8267 24.376 47.168C24.632 47.488 24.888 47.6587 25.144 47.68L25.496 47.744H26.488V48H25.496ZM17.272 47.872C18.4027 47.872 19.416 47.488 20.312 46.72C21.2293 45.9307 21.72 45.1733 21.784 44.448V40.576C21.208 40.5333 20.6213 40.512 20.024 40.512C19.448 40.512 18.872 40.544 18.296 40.608C16.6747 40.8 15.6187 41.1627 15.128 41.696C14.6373 42.2293 14.392 42.9653 14.392 43.904C14.392 44.0747 14.4027 44.2667 14.424 44.48C14.616 46.7413 15.5653 47.872 17.272 47.872ZM41.5288 48C40.6541 48 39.9821 47.808 39.5128 47.424C39.0648 47.04 38.8301 46.656 38.8088 46.272L38.7768 45.728V35.68C38.7768 33.9947 38.3394 32.9173 37.4648 32.448C37.0168 32.2347 36.4621 32.128 35.8008 32.128C34.4354 32.128 33.2088 32.672 32.1208 33.76C31.0328 34.8267 30.4888 35.7867 30.4888 36.64V48H28.2488V32H30.4888V35.648C30.8514 34.7307 31.5234 33.8773 32.5048 33.088C33.4861 32.2773 34.5634 31.872 35.7368 31.872C36.9101 31.872 37.8594 31.9893 38.5848 32.224C39.3314 32.4373 39.8754 32.7467 40.2168 33.152C40.7501 33.8133 41.0168 34.6667 41.0168 35.712V45.728C41.0168 46.3467 41.1341 46.8267 41.3688 47.168C41.6248 47.488 41.8808 47.6587 42.1368 47.68L42.4888 47.744H43.4808V48H41.5288ZM44.62 40.576C44.62 37.8027 45.292 35.6587 46.636 34.144C47.98 32.6293 49.996 31.872 52.684 31.872C54.668 31.872 56.684 32.224 58.732 32.928V48.384C58.7107 53.4613 56.492 56 52.076 56C49.644 56 47.564 55.2107 45.836 53.632L46.06 53.44C47.8947 54.976 49.9 55.744 52.076 55.744C55.02 55.744 56.492 53.2907 56.492 48.384V45.216C56.0867 45.9627 55.4147 46.624 54.476 47.2C53.5373 47.776 52.428 48.064 51.148 48.064C46.796 47.9573 44.62 45.4613 44.62 40.576ZM51.18 47.808C52.6093 47.808 53.836 47.424 54.86 46.656C55.884 45.888 56.428 45.1307 56.492 44.384V33.088C54.956 32.448 53.6547 32.128 52.588 32.128C50.6893 32.128 49.26 32.8747 48.3 34.368C47.34 35.84 46.86 37.9093 46.86 40.576C46.86 45.3973 48.3 47.808 51.18 47.808ZM63.9888 44.32C63.9888 46.0053 64.4368 47.0827 65.3328 47.552C65.7594 47.7653 66.3034 47.872 66.9648 47.872C68.3088 47.872 69.5034 47.36 70.5488 46.336C71.6154 45.312 72.1914 44.3627 72.2768 43.488V32H74.5168V45.728C74.5168 46.3467 74.6341 46.8267 74.8688 47.168C75.1248 47.488 75.3808 47.6587 75.6368 47.68L75.9888 47.744H76.9808V48H75.0288C74.1541 48 73.4821 47.808 73.0128 47.424C72.5648 47.04 72.3301 46.656 72.3088 46.272L72.2768 45.728V44.352C71.8928 45.2693 71.2101 46.1333 70.2288 46.944C69.2474 47.7333 68.1701 48.128 66.9968 48.128C65.8448 48.128 64.8954 48.0213 64.1488 47.808C63.4234 47.5733 62.9008 47.2533 62.5807 46.848C62.0261 46.1867 61.7488 45.3333 61.7488 44.288V32H63.9888V44.32ZM91.8085 48C90.3578 48 89.3658 47.7227 88.8325 47.168C88.3418 46.6987 88.0965 46.2933 88.0965 45.952V45.28C87.0512 47.1787 85.3765 48.128 83.0725 48.128C80.3845 48.128 78.8592 46.912 78.4965 44.48C78.4538 44.224 78.4325 43.968 78.4325 43.712C78.4325 43.4347 78.4752 43.136 78.5605 42.816C78.6458 42.496 78.8912 42.144 79.2965 41.76C80.1072 40.992 81.8885 40.5227 84.6405 40.352C85.3232 40.288 85.9525 40.256 86.5285 40.256C87.1045 40.256 87.6272 40.2773 88.0965 40.32V35.008C88.0538 34.9867 88.0538 34.8907 88.0965 34.72C88.1392 34.528 88.0965 34.2933 87.9685 34.016C87.8618 33.7173 87.7125 33.4293 87.5205 33.152C87.3285 32.8747 86.9872 32.64 86.4965 32.448C86.0058 32.2347 85.3658 32.128 84.5765 32.128C83.7872 32.128 82.8592 32.2773 81.7925 32.576C80.7472 32.8533 79.9792 33.1307 79.4885 33.408L79.3605 33.184C81.2592 32.3093 83.1898 31.872 85.1525 31.872C87.3498 31.872 88.8005 32.2667 89.5045 33.056C90.0592 33.6747 90.3365 34.3253 90.3365 35.008V45.728C90.3365 46.3467 90.4538 46.8267 90.6885 47.168C90.9445 47.488 91.2005 47.6587 91.4565 47.68L91.8085 47.744H92.8005V48H91.8085ZM83.5845 47.872C84.7152 47.872 85.7285 47.488 86.6245 46.72C87.5418 45.9307 88.0325 45.1733 88.0965 44.448V40.576C87.5205 40.5333 86.9338 40.512 86.3365 40.512C85.7605 40.512 85.1845 40.544 84.6085 40.608C82.9872 40.8 81.9312 41.1627 81.4405 41.696C80.9498 42.2293 80.7045 42.9653 80.7045 43.904C80.7045 44.0747 80.7152 44.2667 80.7365 44.48C80.9285 46.7413 81.8778 47.872 83.5845 47.872ZM94.4013 40.576C94.4013 37.8027 95.0733 35.6587 96.4173 34.144C97.7613 32.6293 99.7773 31.872 102.465 31.872C104.449 31.872 106.465 32.224 108.513 32.928V48.384C108.492 53.4613 106.273 56 101.857 56C99.4253 56 97.3453 55.2107 95.6173 53.632L95.8413 53.44C97.6759 54.976 99.6813 55.744 101.857 55.744C104.801 55.744 106.273 53.2907 106.273 48.384V45.216C105.868 45.9627 105.196 46.624 104.257 47.2C103.319 47.776 102.209 48.064 100.929 48.064C96.5773 47.9573 94.4013 45.4613 94.4013 40.576ZM100.961 47.808C102.391 47.808 103.617 47.424 104.641 46.656C105.665 45.888 106.209 45.1307 106.273 44.384V33.088C104.737 32.448 103.436 32.128 102.369 32.128C100.471 32.128 99.0413 32.8747 98.0813 34.368C97.1213 35.84 96.6413 37.9093 96.6413 40.576C96.6413 45.3973 98.0813 47.808 100.961 47.808ZM113.081 40.192C113.081 42.8373 113.54 44.7787 114.457 46.016C115.396 47.2533 116.622 47.872 118.137 47.872C120.27 47.872 122.169 47.552 123.833 46.912L123.929 47.136C122.222 47.7973 120.292 48.128 118.137 48.128C116.004 48.128 114.265 47.488 112.921 46.208C111.577 44.928 110.905 42.9547 110.905 40.288C110.905 37.6213 111.609 35.552 113.017 34.08C114.425 32.608 116.217 31.872 118.393 31.872C120.142 31.872 121.614 32.3947 122.809 33.44C124.004 34.4853 124.601 36.032 124.601 38.08C124.601 38.1867 124.601 38.2933 124.601 38.4H113.177C113.113 38.976 113.081 39.5733 113.081 40.192ZM122.425 38.144C122.404 36.096 122.009 34.5813 121.241 33.6C120.473 32.6187 119.481 32.128 118.265 32.128C117.049 32.128 115.961 32.6613 115.001 33.728C114.062 34.7947 113.465 36.2667 113.209 38.144H122.425Z" fill="white"/>
<path d="M4.38281 48C3.67969 48 3.32812 47.6484 3.32812 46.9453V17.6953C3.32812 17.3828 3.40625 17.0859 3.5625 16.8047L5.20312 13.8281C5.5 13.2813 5.74219 13.0078 5.92969 13.0078H6.75C7.21875 13.0078 7.45312 13.2813 7.45312 13.8281V46.9453C7.45312 47.6484 7.10156 48 6.39844 48H4.38281Z" fill="white"/>
</svg>
